<svg width="223" height="17" viewBox="0 0 223 17" fill="none" xmlns="http://www.w3.org/2000/svg">
<path d="M3.98967 13.4602H10.7028V16H0.828051V0.6556H3.98967V13.4602ZM21.758 9.35006H15.6877V13.4602H22.8119V16H12.526V0.6556H22.7908V3.21651H15.6877V6.87345H21.758V9.35006ZM28.0285 16H24.8669V0.6556H28.0285V16ZM42.2031 3.21651H37.5029V16H34.3412V3.21651H29.7042V0.6556H42.2031V3.21651ZM55.6295 0.6556V10.7622C55.6295 12.4414 55.1025 13.7693 54.0487 14.7459C53.0018 15.7225 51.5686 16.2108 49.7489 16.2108C47.9573 16.2108 46.5345 15.7365 45.4807 14.788C44.4268 13.8396 43.8893 12.5363 43.8682 10.8782V0.6556H47.0299V10.7833C47.0299 11.788 47.2687 12.5222 47.7465 12.9859C48.2313 13.4426 48.8987 13.6709 49.7489 13.6709C51.5264 13.6709 52.4292 12.7365 52.4573 10.8676V0.6556H55.6295ZM63.9024 10.3829H61.3836V16H58.222V0.6556H63.9235C65.7361 0.6556 67.1343 1.05958 68.1179 1.86755C69.1015 2.67552 69.5933 3.81722 69.5933 5.29264C69.5933 6.33949 69.365 7.21421 68.9083 7.91679C68.4586 8.61235 67.7736 9.16739 66.8532 9.58191L70.1729 15.8525V16H66.7795L63.9024 10.3829ZM61.3836 7.82194H63.934C64.7279 7.82194 65.3427 7.6217 65.7783 7.22123C66.2139 6.81373 66.4317 6.25518 66.4317 5.54557C66.4317 4.82191 66.2244 4.25282 65.8099 3.8383C65.4024 3.42377 64.7736 3.21651 63.9235 3.21651H61.3836V7.82194ZM80.6695 12.8384H75.1261L74.0723 16H70.7104L76.4224 0.6556H79.3522L85.0958 16H81.7339L80.6695 12.8384ZM75.9798 10.2775H79.8159L77.8873 4.53385L75.9798 10.2775ZM95.2657 16H92.104V0.6556H95.2657V16ZM110.684 16H107.522L101.368 5.90389V16H98.206V0.6556H101.368L107.533 10.7728V0.6556H110.684V16ZM124.679 3.21651H119.979V16H116.817V3.21651H112.18V0.6556H124.679V3.21651ZM135.724 9.35006H129.654V13.4602H136.778V16H126.492V0.6556H136.757V3.21651H129.654V6.87345H135.724V9.35006ZM141.794 13.4602H148.507V16H138.633V0.6556H141.794V13.4602ZM153.692 16H150.531V0.6556H153.692V16ZM168.773 14.0609C168.204 14.7424 167.4 15.2728 166.36 15.6522C165.32 16.0246 164.168 16.2108 162.903 16.2108C161.575 16.2108 160.409 15.9227 159.404 15.3466C158.407 14.7635 157.634 13.9204 157.086 12.8173C156.545 11.7142 156.267 10.418 156.253 8.92851V7.88517C156.253 6.35354 156.51 5.02918 157.023 3.91207C157.543 2.78794 158.287 1.93079 159.257 1.34062C160.233 0.743423 161.375 0.444825 162.682 0.444825C164.502 0.444825 165.924 0.880426 166.95 1.75163C167.976 2.6158 168.584 3.87694 168.773 5.53503H165.696C165.556 4.65681 165.243 4.01394 164.758 3.60645C164.28 3.19895 163.62 2.9952 162.777 2.9952C161.702 2.9952 160.883 3.39918 160.321 4.20715C159.759 5.01512 159.475 6.21654 159.468 7.8114V8.7915C159.468 10.4004 159.773 11.6159 160.385 12.4379C160.996 13.2599 161.892 13.6709 163.072 13.6709C164.259 13.6709 165.106 13.418 165.612 12.9122V10.2669H162.735V7.93787H168.773V14.0609ZM180.577 9.35006H174.506V13.4602H181.631V16H171.345V0.6556H181.61V3.21651H174.506V6.87345H180.577V9.35006ZM195.963 16H192.802L186.647 5.90389V16H183.485V0.6556H186.647L192.812 10.7728V0.6556H195.963V16ZM209.959 3.21651H205.258V16H202.097V3.21651H197.46V0.6556H209.959V3.21651ZM221.003 9.35006H214.933V13.4602H222.057V16H211.771V0.6556H222.036V3.21651H214.933V6.87345H221.003V9.35006Z" fill="#720826"/>
</svg>
